<?xml version="1.0" encoding="UTF-8"?><svg id="Layer_1" xmlns="http://www.w3.org/2000/svg" width="400" height="380" viewBox="0 0 400 380"><defs><style>.cls-1{fill:#c9c4ee;}.cls-1,.cls-2,.cls-3{stroke-width:0px;}.cls-2{fill:#7e95f3;}.cls-3{fill:#f2bb94;}</style></defs><path class="cls-2" d="m141.93,105.18c-2.91-1.38-5.35-4.15-7.22-8.92,4.01,3.62,6.28,6.49,7.22,8.92Z"/><path class="cls-2" d="m221.62,92.66c-.25-2.21.33-5.14,1.91-9.15.05,4.46-.61,7.34-1.91,9.15Z"/><path class="cls-2" d="m223.53,83.51c.05,4.46-.61,7.34-1.91,9.15-.25-2.21.33-5.14,1.91-9.15Z"/><path class="cls-2" d="m303.64,125c-4.6,5.86-8.96,7.75-13.31,7.21,1.58-2.65,5.56-4.96,13.31-7.21Z"/><path class="cls-2" d="m93.35,170.52c-3.7,1.36-8.31.75-14.45-2.81,8.19-.62,12.43.42,14.45,2.81Z"/><path class="cls-2" d="m141.93,105.18c-2.91-1.38-5.35-4.15-7.22-8.92,4.01,3.62,6.28,6.49,7.22,8.92Z"/><path class="cls-1" d="m303.64,125c1.84-.54,3.89-1.07,6.18-1.6,37.19-8.68,71.99,4.21,77.73,28.79,5.73,24.57-19.78,51.53-56.97,60.21-1.76.41-3.4.73-4.94.96-8.02-5.42-13.65-6.33-18-4.4-6.46-8.77-1.43-27.72-5.18-43.79-3.9-16.71-16.29-25.99-12.13-32.95,4.35.54,8.71-1.36,13.31-7.21Z"/><path class="cls-1" d="m223.53,83.51c1.09-2.76,2.67-6.03,4.79-9.91,18.32-33.51,51.12-50.87,73.26-38.77,22.14,12.1,25.24,49.08,6.93,82.6-1.66,3.04-3.29,5.54-4.88,7.57-7.75,2.25-11.73,4.57-13.31,7.21-10.74-1.33-21.44-17.46-35.77-25.29-15.86-8.67-31.86-4.82-32.93-14.26,1.29-1.81,1.96-4.69,1.91-9.15Z"/><path class="cls-1" d="m78.89,167.71c-1.94-1.12-4.03-2.53-6.29-4.27-30.27-23.28-42.34-58.38-26.96-78.38,15.39-20.01,52.4-17.35,82.67,5.94,2.5,1.92,4.62,3.67,6.39,5.27,1.87,4.77,4.31,7.54,7.22,8.92,3.69,9.51-12.94,12.26-24.18,26.88-10.59,13.77-13.64,34.49-24.4,38.46-2.02-2.39-6.26-3.43-14.45-2.81Z"/><path class="cls-1" d="m355.96,294.16c-15.39,20.01-52.4,17.35-82.67-5.94-2.5-1.92-4.61-3.67-6.39-5.27,1.07,2.73,1.95,6.12,2.62,10.27,6.1,37.71-9.16,71.54-34.07,75.56-24.91,4.03-50.05-23.27-56.14-60.98-.8-4.96-1.2-8.94-1.25-12.12-1.09,2.76-2.66,6.03-4.79,9.92-18.32,33.52-51.12,50.88-73.26,38.77-22.14-12.1-25.24-49.08-6.93-82.6,1.3-2.38,2.58-4.43,3.83-6.18-3.05,1.46-7.12,2.61-12.44,3.4-37.78,5.6-71.4-10.09-75.11-35.05-3.7-24.96,23.92-49.74,61.7-55.34,2.94-.44,5.54-.73,7.82-.91,6.14,3.56,10.75,4.18,14.45,2.81,4.67,5.5-2.46,18.17-.08,34.23,2.51,16.91,14.91,33.23,10.92,43.75,13.31-7.6,25.39,14.26,42.85,23.8,15.87,8.68,31.87,4.82,32.93,14.27,4.78-6.72,18.14,1.34,35.18-1.42,17.37-2.81,33.98-16.1,44.52-11.11-3.69-9.51,12.94-12.26,24.18-26.88,10.39-13.5,13.53-33.7,23.78-38.21,2.95,4.02,8.3,5.9,18,4.4,1.07.73,2.19,1.53,3.35,2.43,30.28,23.28,42.35,58.38,26.97,78.38Z"/><path class="cls-1" d="m134.71,96.26c-1.07-2.73-1.96-6.12-2.63-10.27-6.1-37.7,9.16-71.53,34.07-75.56,24.91-4.03,50.05,23.27,56.14,60.98.8,4.95,1.21,8.92,1.24,12.1-1.58,4.01-2.16,6.94-1.91,9.15-4.78,6.71-18.13-1.34-35.18,1.41-17.37,2.81-33.98,16.1-44.52,11.11-.94-2.43-3.21-5.3-7.22-8.92Z"/><path class="cls-2" d="m303.64,125c-4.6,5.86-8.96,7.75-13.31,7.21,1.58-2.65,5.56-4.96,13.31-7.21Z"/><path class="cls-2" d="m325.64,213.36c-9.7,1.5-15.05-.38-18-4.4,4.35-1.92,9.99-1.02,18,4.4Z"/><path class="cls-2" d="m93.35,170.52c-3.7,1.36-8.31.75-14.45-2.81,8.19-.62,12.43.42,14.45,2.81Z"/><path class="cls-2" d="m325.64,213.36c-9.7,1.5-15.05-.38-18-4.4,4.35-1.92,9.99-1.02,18,4.4Z"/><ellipse class="cls-1" cx="203.16" cy="185.7" rx="104.5" ry="125.5" transform="translate(-14.22 354.53) rotate(-80.26)"/><circle class="cls-1" cx="104.97" cy="246.47" r="2"/><circle class="cls-3" cx="205.63" cy="186.27" r="65.15"/></svg>