<?xml version="1.0" encoding="UTF-8"?><svg id="Layer_1" xmlns="http://www.w3.org/2000/svg" width="1230" height="560" viewBox="0 0 1230 560"><defs><style>.cls-1{fill:#f8f8f8;stroke-width:0px;}</style></defs><path class="cls-1" d="m278.24,102.1h-50c0-24.19-41.32-42.27-78.27-42.27s-78.27,18.08-78.27,42.27H21.7c0-51.74,56.34-92.27,128.27-92.27s128.27,40.53,128.27,92.27Z"/><path class="cls-1" d="m149.77,193.19c-71.93,0-128.27-40.09-128.27-91.28h50c0,23.62,41.32,41.28,78.27,41.28v50Z"/><path class="cls-1" d="m451.96,333.7v-50c61.06,0,110.73-49.67,110.73-110.73s-49.67-110.73-110.73-110.73V12.24c88.63,0,160.73,72.1,160.73,160.73s-72.1,160.73-160.73,160.73Z"/><path class="cls-1" d="m153.06,330.33c-31.88,0-62.23-7.34-85.46-20.66-27.21-15.6-42.81-38.78-42.81-63.57h50c0,13.63,31.22,34.24,78.27,34.24v50Z"/><path class="cls-1" d="m277.96,235.47h-50c0-12.96-13.22-22.98-18.9-26.68-15.27-9.96-36.9-15.67-59.37-15.67v-50c71.93,0,128.27,40.57,128.27,92.35Z"/><path class="cls-1" d="m149.92,330.1v-50c46.12,0,78.27-23.54,78.27-44.67h50c0,26.79-15.04,52.3-41.26,69.99-23.59,15.92-54.49,24.68-87,24.68Z"/><path class="cls-1" d="m452.42,333.91c-88.63,0-160.73-72.1-160.73-160.73S363.8,12.45,452.42,12.45v50c-61.06,0-110.73,49.67-110.73,110.73s49.67,110.73,110.73,110.73v50Z"/><rect class="cls-1" x="95.9" y="393.53" width="38.05" height="24.42"/><polygon class="cls-1" points="294.91 539.47 271.23 540.54 203.38 395.12 231.5 393.68 294.91 539.47"/><path class="cls-1" d="m356.17,540.44h-.18l.03-25h.16c20.99,0,36.09-4.59,44.88-13.64,7.4-7.62,10.92-19.2,10.46-34.42-.57-18.65-4.42-30.23-12.5-37.53-9.8-8.86-27.33-12.46-52.11-10.7l-1.77-24.94c32.28-2.29,55.38,3.31,70.64,17.09,17.56,15.87,20.24,39.17,20.73,55.32.67,22.24-5.22,39.94-17.51,52.59-13.68,14.08-34.82,21.23-62.82,21.23Z"/><rect class="cls-1" x="332.21" y="394.1" width="27.26" height="145.94"/><rect class="cls-1" x="642.36" y="17.85" width="60.64" height="311.67"/><rect class="cls-1" x="719.37" y="-59.16" width="60.64" height="214.66" transform="translate(797.86 -701.52) rotate(90)"/><rect class="cls-1" x="715.13" y="65.15" width="60.64" height="206.17" transform="translate(913.68 -577.21) rotate(90)"/><rect class="cls-1" x="887.34" y="17.85" width="60.64" height="311.67"/><rect class="cls-1" x="992.84" y="17.85" width="60.64" height="311.67"/><rect class="cls-1" x="1069.85" y="-59.16" width="60.64" height="214.66" transform="translate(1148.34 -1052) rotate(90)"/><rect class="cls-1" x="1065.61" y="65.15" width="60.64" height="206.17" transform="translate(1264.16 -927.7) rotate(90)"/><rect class="cls-1" x="1069.85" y="191.88" width="60.64" height="214.66" transform="translate(1399.38 -800.96) rotate(90)"/><rect class="cls-1" x="202.35" y="394.67" width="28.39" height="145.94"/><rect class="cls-1" x="276.17" y="394.67" width="28.39" height="145.94"/><rect class="cls-1" x="78.87" y="458.87" width="69.28" height="24.42"/><polygon class="cls-1" points="46.5 540.61 75.88 540.58 117.81 400.8 95.34 393.53 46.5 540.61"/><polygon class="cls-1" points="181.03 541.17 151.65 541.15 109.72 401.37 133.95 393.53 181.03 541.17"/><rect class="cls-1" x="452.39" y="394.1" width="28.39" height="145.94"/><rect class="cls-1" x="488.45" y="358.04" width="28.39" height="100.51" transform="translate(910.94 -94.35) rotate(90)"/><rect class="cls-1" x="486.46" y="416.25" width="28.39" height="96.54" transform="translate(965.17 -36.14) rotate(90)"/><rect class="cls-1" x="488.45" y="475.59" width="28.39" height="100.51" transform="translate(1028.48 23.2) rotate(90)"/><rect class="cls-1" x="581.58" y="394.67" width="27.26" height="145.94"/><path class="cls-1" d="m610.07,479.77c-4.53,0-9.16-.41-13.86-1.24l4.37-24.62c13.1,2.32,25.05-.06,32.78-6.54,4.53-3.8,6.14-7.84,6.14-10.37,0-8.43-3.4-11.44-4.52-12.42-5.75-5.09-18.2-6.74-35.05-4.66l-3.07-24.81c25.11-3.1,42.99.41,54.68,10.74,8.48,7.5,12.96,18.27,12.96,31.15,0,10.73-5.5,21.49-15.08,29.52-10.33,8.66-24.2,13.24-39.35,13.24Z"/><polygon class="cls-1" points="671.89 539.05 643.22 540.32 588.84 466.2 616.83 456.22 671.89 539.05"/><path class="cls-1" d="m787.26,433.17h-26c0-10.03-11.55-18.5-25.23-18.5s-25.23,8.47-25.23,18.5h-26c0-24.54,22.98-44.5,51.23-44.5s51.23,19.96,51.23,44.5Z"/><path class="cls-1" d="m735.95,477.12c-28.25,0-51.23-19.75-51.23-44.03h26c0,9.78,11.55,18.03,25.23,18.03v26Z"/><path class="cls-1" d="m737.17,541.33c-28.73,0-51.23-17.89-51.23-40.74h26c0,6.96,10.79,14.74,25.23,14.74v26Z"/><path class="cls-1" d="m787.16,495.62h-26c0-10.05-11.55-18.54-25.23-18.54v-26c28.25,0,51.23,19.98,51.23,44.54Z"/><path class="cls-1" d="m736.01,541.22v-26c13.91,0,25.23-8.8,25.23-19.62h26c0,25.16-22.98,45.62-51.23,45.62Z"/><path class="cls-1" d="m911.96,433.03h-26c0-10.03-11.55-18.5-25.23-18.5s-25.23,8.47-25.23,18.5h-26c0-24.54,22.98-44.5,51.23-44.5s51.23,19.96,51.23,44.5Z"/><path class="cls-1" d="m860.66,476.97c-28.25,0-51.23-19.75-51.23-44.03h26c0,9.78,11.55,18.03,25.23,18.03v26Z"/><path class="cls-1" d="m1005.68,543.63v-27c24.8,0,44.98-22.45,44.98-50.05s-20.18-50.05-44.98-50.05v-27c39.69,0,71.98,34.57,71.98,77.05s-32.29,77.05-71.98,77.05Z"/><path class="cls-1" d="m861.88,541.18c-28.73,0-51.23-17.89-51.23-40.74h26c0,6.96,10.79,14.74,25.23,14.74v26Z"/><path class="cls-1" d="m911.86,495.47h-26c0-10.05-11.55-18.54-25.23-18.54v-26c28.25,0,51.23,19.98,51.23,44.54Z"/><path class="cls-1" d="m860.71,541.08v-26c13.91,0,25.23-8.8,25.23-19.62h26c0,25.16-22.98,45.62-51.23,45.62Z"/><path class="cls-1" d="m1005.88,543.73c-39.69,0-71.98-34.57-71.98-77.05s32.29-77.05,71.98-77.05v27c-24.8,0-44.98,22.45-44.98,50.05s20.18,50.05,44.98,50.05v27Z"/><polygon class="cls-1" points="1194.83 537.19 1171.15 538.27 1103.29 392.84 1131.41 391.4 1194.83 537.19"/><rect class="cls-1" x="1102.27" y="392.39" width="28.39" height="145.94"/><rect class="cls-1" x="1176.09" y="392.39" width="28.39" height="145.94"/></svg>